<svg xmlns="http://www.w3.org/2000/svg" width="1280" height="360" viewBox="0 0 1280 360" role="img" aria-labelledby="title description">
  <title id="title">Albumentations</title>
  <description id="description">Open-source image augmentation ecosystem for computer vision</description>
  <defs>
    <linearGradient id="background" x1="0" y1="0" x2="1" y2="1">
      <stop offset="0" stop-color="#3b168f"/>
      <stop offset="0.55" stop-color="#5b2fc4"/>
      <stop offset="1" stop-color="#1267d7"/>
    </linearGradient>
    <linearGradient id="image" x1="0" y1="0" x2="1" y2="1">
      <stop offset="0" stop-color="#ffcb57"/>
      <stop offset="0.48" stop-color="#ff7b72"/>
      <stop offset="1" stop-color="#7ee787"/>
    </linearGradient>
    <filter id="shadow" x="-30%" y="-30%" width="160%" height="160%">
      <feDropShadow dx="0" dy="12" stdDeviation="16" flood-color="#160a42" flood-opacity="0.35"/>
    </filter>
    <pattern id="grid" width="28" height="28" patternUnits="userSpaceOnUse">
      <path d="M28 0H0V28" fill="none" stroke="#ffffff" stroke-opacity="0.08"/>
    </pattern>
  </defs>

  <rect width="1280" height="360" rx="28" fill="url(#background)"/>
  <rect width="1280" height="360" rx="28" fill="url(#grid)"/>
  <circle cx="1180" cy="-20" r="210" fill="#9e77ed" opacity="0.18"/>
  <circle cx="1010" cy="380" r="190" fill="#58a6ff" opacity="0.16"/>

  <g fill="#ffffff">
    <text x="72" y="146" font-family="Inter, ui-sans-serif, system-ui, -apple-system, BlinkMacSystemFont, Segoe UI, sans-serif" font-size="64" font-weight="750" letter-spacing="-2">Albumentations</text>
    <text x="76" y="198" font-family="Inter, ui-sans-serif, system-ui, -apple-system, BlinkMacSystemFont, Segoe UI, sans-serif" font-size="25" font-weight="500" opacity="0.9">Open-source image augmentation ecosystem</text>
    <text x="76" y="236" font-family="Inter, ui-sans-serif, system-ui, -apple-system, BlinkMacSystemFont, Segoe UI, sans-serif" font-size="25" font-weight="500" opacity="0.9">for computer vision</text>
  </g>

  <g transform="translate(860 64)" filter="url(#shadow)">
    <rect x="0" y="0" width="300" height="232" rx="22" fill="#ffffff" opacity="0.16" stroke="#ffffff" stroke-opacity="0.55" stroke-width="2"/>
    <rect x="24" y="24" width="252" height="184" rx="14" fill="url(#image)"/>
    <path d="M24 164L91 100L137 143L184 85L276 174V208H24Z" fill="#1f6f50" opacity="0.78"/>
    <circle cx="76" cy="72" r="22" fill="#fff8c5" opacity="0.92"/>
    <rect x="117" y="58" width="102" height="108" rx="8" fill="none" stroke="#ffffff" stroke-width="5"/>
    <circle cx="117" cy="58" r="7" fill="#ffffff"/>
    <circle cx="219" cy="58" r="7" fill="#ffffff"/>
    <circle cx="117" cy="166" r="7" fill="#ffffff"/>
    <circle cx="219" cy="166" r="7" fill="#ffffff"/>
  </g>

  <g transform="translate(802 94) rotate(-8)" opacity="0.92">
    <rect width="82" height="82" rx="17" fill="#ffffff"/>
    <path d="M24 43L37 56L61 27" fill="none" stroke="#5b2fc4" stroke-width="8" stroke-linecap="round" stroke-linejoin="round"/>
  </g>
</svg>
